<?xml version="1.0" standalone="no"?>
<!DOCTYPE svg PUBLIC "-//W3C//DTD SVG 20010904//EN"
 "http://www.w3.org/TR/2001/REC-SVG-20010904/DTD/svg10.dtd">
<svg version="1.0" xmlns="http://www.w3.org/2000/svg"
 width="420.000000pt" height="100.000000pt" viewBox="0 0 420.000000 100.000000"
 preserveAspectRatio="xMidYMid meet">

<g transform="translate(0.000000,100.000000) scale(0.100000,-0.100000)"
fill="#000000" stroke="none">
<path d="M150 556 l0 -204 53 12 52 11 3 113 c1 61 6 112 10 112 4 0 43 -36
87 -80 44 -44 84 -80 90 -80 5 0 47 37 92 82 l83 83 0 -98 0 -97 58 0 57 0 3
175 4 175 -69 0 -68 0 -80 -80 -80 -80 -80 80 -80 80 -68 0 -67 0 0 -204z"/>
<path d="M1903 620 c-49 -30 -66 -63 -60 -116 12 -111 149 -149 222 -63 47 57
27 151 -39 183 -45 21 -84 20 -123 -4z m107 -60 c26 -26 25 -58 -2 -87 -28
-30 -53 -29 -83 2 -30 29 -31 45 -4 79 25 31 61 34 89 6z"/>
<path d="M2912 623 c-58 -28 -80 -109 -47 -172 29 -56 131 -75 193 -35 18 12
22 24 22 64 l0 50 -55 0 c-48 0 -55 -3 -55 -19 0 -13 8 -21 23 -23 35 -5 27
-32 -10 -36 -62 -6 -96 65 -53 108 21 21 74 27 85 10 9 -15 18 -12 38 16 l18
24 -35 15 c-45 19 -83 19 -124 -2z"/>
<path d="M3420 622 c-142 -70 -39 -276 108 -216 51 20 75 56 75 110 0 52 -24
91 -68 110 -45 18 -73 18 -115 -4z m109 -74 c33 -59 -28 -121 -83 -84 -31 20
-35 69 -9 98 25 28 73 20 92 -14z"/>
<path d="M1550 515 l0 -115 30 0 c29 0 29 0 32 67 l3 67 30 -46 31 -47 29 47
30 47 3 -67 c3 -68 3 -68 32 -68 l30 0 0 115 0 115 -35 0 c-30 0 -37 -5 -57
-40 -13 -22 -26 -40 -29 -40 -4 0 -18 18 -33 40 -22 34 -32 40 -61 40 l-35 0
0 -115z"/>
<path d="M2130 515 l0 -115 30 0 c29 0 29 1 32 62 l3 63 49 -63 c40 -50 54
-62 77 -62 l29 0 0 115 0 115 -30 0 c-29 0 -29 -1 -32 -60 l-3 -61 -45 60
c-39 52 -50 61 -77 61 l-33 0 0 -115z"/>
<path d="M2400 515 l0 -115 30 0 30 0 0 115 0 115 -30 0 -30 0 0 -115z"/>
<path d="M2510 515 l0 -115 30 0 c28 0 30 3 30 35 0 47 27 47 58 0 18 -29 28
-35 57 -35 38 0 38 6 1 55 -13 18 -13 22 7 43 29 32 28 89 -2 113 -18 15 -40
19 -102 19 l-79 0 0 -115z m135 35 c0 -22 -5 -25 -37 -28 -36 -3 -38 -2 -38
28 0 30 2 31 38 28 32 -3 37 -6 37 -28z"/>
<path d="M3120 515 l0 -115 30 0 c28 0 30 3 30 35 0 47 27 47 58 0 18 -29 28
-35 57 -35 38 0 38 6 1 55 -13 18 -13 22 7 43 29 32 28 89 -2 113 -18 15 -40
19 -102 19 l-79 0 0 -115z m135 35 c0 -22 -5 -25 -37 -28 -36 -3 -38 -2 -38
28 0 30 2 31 38 28 32 -3 37 -6 37 -28z"/>
<path d="M3640 550 c0 -102 15 -135 69 -150 50 -13 94 -4 123 27 20 21 23 37
26 114 l4 89 -36 0 -36 0 0 -78 c0 -80 -9 -102 -41 -102 -32 0 -49 40 -49 112
l0 68 -30 0 -30 0 0 -80z"/>
<path d="M3900 515 l0 -115 29 0 c26 0 30 4 33 33 3 30 5 32 52 38 82 9 115
81 61 134 -21 22 -33 25 -100 25 l-75 0 0 -115z m130 50 c18 -21 -4 -45 -41
-45 -26 0 -29 4 -29 30 0 26 3 30 29 30 16 0 34 -7 41 -15z"/>
<path d="M480 354 c-72 -9 -261 -47 -256 -51 2 -2 30 0 62 6 134 25 390 35
583 22 102 -7 202 -14 221 -16 19 -2 -5 5 -55 16 -71 16 -136 21 -305 24 -118
1 -231 1 -250 -1z"/>
<path d="M1148 303 c7 -3 16 -2 19 1 4 3 -2 6 -13 5 -11 0 -14 -3 -6 -6z"/>
</g>
</svg>
